<svg id="visual" viewBox="0 0 1920 1080" width="1920" height="1080" xmlns="http://www.w3.org/2000/svg" xmlns:xlink="http://www.w3.org/1999/xlink" version="1.1"><path d="M0 842L64 848C128 854 256 866 384 848.5C512 831 640 784 768 788.2C896 792.3 1024 847.7 1152 852.3C1280 857 1408 811 1536 806.8C1664 802.7 1792 840.3 1856 859.2L1920 878L1920 1081L1856 1081C1792 1081 1664 1081 1536 1081C1408 1081 1280 1081 1152 1081C1024 1081 896 1081 768 1081C640 1081 512 1081 384 1081C256 1081 128 1081 64 1081L0 1081Z" fill="#E1A2F2" stroke-linecap="round" stroke-linejoin="miter"></path></svg>